inDegrees=no
num_controls=7
num_derivatives=13
num_iterations=162
num_multipliers=7
num_parameters=0
num_slacks=7
num_states=26
objective=0.431693
objective_accelerations=0.049175
objective_balance=0.006764
objective_effort=0.030804
objective_height=0.343765
objective_ligament=0.001184
solver_duration=2018.780741
status=Solve_Succeeded
success=true
DataType=double
version=3
OpenSimVersion=4.5
endheader
time	/jointset/ground_pelvis/pelvis_tilt/value	/jointset/ground_pelvis/pelvis_tx/value	/jointset/ground_pelvis/pelvis_ty/value	/jointset/hip_l/hip_flexion_l/value	/jointset/hip_l/hip_adduction_l/value	/jointset/hip_l/hip_rotation_l/value	/jointset/back/lumbar_extension/value	/jointset/patellofemoral_l/patellar_flexion_l/value	/jointset/knee_l/knee_flexion_l/value	/jointset/knee_l/knee_adduction_l/value	/jointset/knee_l/knee_rotation_l/value	/jointset/ankle_l/ankle_angle_l/value	/jointset/subtalar_l/subtalar_angle_l/value	/jointset/ground_pelvis/pelvis_tilt/speed	/jointset/ground_pelvis/pelvis_tx/speed	/jointset/ground_pelvis/pelvis_ty/speed	/jointset/hip_l/hip_flexion_l/speed	/jointset/hip_l/hip_adduction_l/speed	/jointset/hip_l/hip_rotation_l/speed	/jointset/back/lumbar_extension/speed	/jointset/patellofemoral_l/patellar_flexion_l/speed	/jointset/knee_l/knee_flexion_l/speed	/jointset/knee_l/knee_adduction_l/speed	/jointset/knee_l/knee_rotation_l/speed	/jointset/ankle_l/ankle_angle_l/speed	/jointset/subtalar_l/subtalar_angle_l/speed	/forceset/tau_hip_flexion_l	/forceset/tau_hip_adduction_l	/forceset/tau_hip_rotation_l	/forceset/tau_knee_flexion_l	/forceset/tau_ankle_angle_l	/forceset/tau_subtalar_angle_l	/forceset/tau_lumbar_extension	lambda_cid13_p0	lambda_cid13_p1	lambda_cid13_p2	lambda_cid13_p3	lambda_cid13_p4	lambda_cid13_p5	lambda_cid14_p0	/jointset/ground_pelvis/pelvis_tilt/accel	/jointset/ground_pelvis/pelvis_tx/accel	/jointset/ground_pelvis/pelvis_ty/accel	/jointset/hip_l/hip_flexion_l/accel	/jointset/hip_l/hip_adduction_l/accel	/jointset/hip_l/hip_rotation_l/accel	/jointset/back/lumbar_extension/accel	/jointset/patellofemoral_l/patellar_flexion_l/accel	/jointset/knee_l/knee_flexion_l/accel	/jointset/knee_l/knee_adduction_l/accel	/jointset/knee_l/knee_rotation_l/accel	/jointset/ankle_l/ankle_angle_l/accel	/jointset/subtalar_l/subtalar_angle_l/accel	gamma_cid13_p0	gamma_cid13_p1	gamma_cid13_p2	gamma_cid13_p3	gamma_cid13_p4	gamma_cid13_p5	gamma_cid14_p0
0.5	-0.3287124398186129	-0.02758066349443101	0.7706732903529517	1.14634364969098	-0.3052328809163848	0.004143346904640508	-0.3200677977805623	0.7989626957603964	0.7989626957604042	-0.1732749329489451	0.1675811459257356	0.1618772822132738	-0.01989595135052739	-0.4240973515779753	-0.1616209631723134	-0.4932700739780072	2.078130706122966	0.006293585161104778	0.6915701010767807	-0.6301842249961584	2.075394665015923	2.075394665015906	-0.006506548413411428	0.04134248608265378	0.5429066846549521	0.0962373567356111	-0.1835213313979156	0.02026459129813947	-0.0262397859874975	-0.2556628529607556	0.09924812348873785	0.03806120651210338	0.1836036649087998	-6.253188115329551	-18.24500142878433	5.715923318893895	-1.683521959316721	-604.6069203708519	-59.34888416188501	-21.60084403303005	0.4694803056562744	0.5348241923113869	-0.4253292735375691	-1.265412710869122	0.6735616302318146	-0.350449170141169	1.595344183477951	-1.306889480593724	-1.306889480593724	0.04699538678323386	-0.09316118551317532	-0.5228350680678032	0.6910309651785195	-4.179211199298729e-07	-4.73269943398648e-07	2.535616104797915e-06	2.710488432914957e-07	-4.92550055250414e-07	-3.37112169717014e-07	-4.008672396228395e-07
0.51	-0.3329290724423184	-0.02916995295829644	0.7657203684977982	1.167058238350426	-0.3051377396666907	0.01104265668918472	-0.3262895634991922	0.819647876866074	0.8196478768660774	-0.1733411740534967	0.1679895402005595	0.1672788440874177	-0.01890075176336885	-0.4191798788724826	-0.156224699888408	-0.4972095562937904	2.064515567855322	0.01270892411502843	0.6882032433175875	-0.6141008453829925	2.061360002570985	2.061360002570968	-0.006734861061916454	0.04033582955241564	0.5373169360420783	0.1027782572226091	-0.1895887045950417	0.02067777343598472	-0.02633039541639835	-0.2585157266173829	0.09767582140927304	0.03816972779588419	0.1886909507196193	-6.980165500833186	-18.0668928348712	5.575643508240393	-1.416758880007247	-608.8043803614825	-59.02680665809361	-20.34056578912935	0.5102406172521042	0.5439149987880556	-0.3626407083935924	-1.450329172302034	0.6213318227817222	-0.3434417511807574	1.625045852260621	-1.493910218263597	-1.493910218263426	-0.05669781972495193	-0.1049847008283793	-0.59034351039337	0.6317525421908617	-3.84502339748033e-07	-3.798481198894723e-07	2.407393567202502e-06	2.624151307831008e-07	-4.534205437392651e-07	-2.463954317622125e-07	-3.74851392376933e-07
0.52	-0.3370950583661176	-0.03070490226885124	0.7607311752199279	1.187628522669677	-0.3049792826684957	0.01790557036166254	-0.3323484532212855	0.8401842802289381	0.8401842802289372	-0.173409488930345	0.1683877545472711	0.1726218487249337	-0.01784091658099425	-0.4139680115967361	-0.1507529325101849	-0.5005243585213693	2.049269838084077	0.0189567348613068	0.6842908786634999	-0.5976090256888379	2.045639116453257	2.045639116453243	-0.006921302872739788	0.03930650046020604	0.5311952373293557	0.109164475778824	-0.1956560777921679	0.02109095557383	-0.02642100484529937	-0.2613686002740102	0.09610351932980828	0.03827824907966502	0.1937782365304388	-7.712182607379777	-17.88968008699952	5.437539578079673	-1.165284263099678	-613.1031477607798	-58.78689791732091	-19.07840961437516	0.5283592197070417	0.5499250111749333	-0.3003932558967115	-1.591531011589511	0.6400559887027566	-0.4595505491200769	1.677032199675698	-1.644134215151758	-1.644134215151694	0.05536955431957254	-0.09769569790762794	-0.6292250880376037	0.6600945790218969	-3.535141597596487e-07	-2.855235042778888e-07	2.287485761495127e-06	2.557227640962481e-07	-4.187955834060366e-07	-1.604942394706869e-07	-3.4989743148073e-07
0.53	-0.3412075692430634	-0.03218480891850221	0.755711990551535	1.208038446399583	-0.3047590653198251	0.02472669351460636	-0.3382404400617642	0.8605552535475773	0.8605552535475759	-0.1734791756628712	0.168775479267613	0.1779011336990378	-0.01671785145976349	-0.4084903419000373	-0.1452205724034377	-0.50320357703205	2.032451710014861	0.02505505185292541	0.6798527706832852	-0.5807320853241256	2.028282519585478	2.028282519585478	-0.007013892694447425	0.03823450254848294	0.5245804655824771	0.115417265975743	-0.2015745753301324	0.02131991031200931	-0.02645633397931687	-0.2643487394734721	0.09469936830537998	0.03824338640517576	0.1987276157544761	-8.395492274489676	-17.65237708770253	5.282604126301918	-0.9124006981024075	-617.4093397640402	-58.48364978722799	-17.81708638346499	0.5640165915925769	0.5561157044269848	-0.2354165516281919	-1.766471234264315	0.5896579697534323	-0.4483824864637677	1.701463517282381	-1.822309217903044	-1.822309217900884	-0.04121698952783161	-0.1129830444297524	-0.6897775587291639	0.6029551230810284	-3.247938914642674e-07	-1.992037685347879e-07	2.174459927751972e-06	2.505730643814299e-07	-3.88609607581277e-07	-8.164454969803317e-08	-3.263508236395978e-07
0.54	-0.3452639942736538	-0.03360914712828525	0.7506692676174406	1.228272285342861	-0.3044788771181659	0.03150094727494972	-0.343961969786113	0.8807444835384767	0.8807444835384747	-0.1735497170414369	0.1691522777675125	0.1831118360875298	-0.01553324165995274	-0.4027508423256875	-0.139639244536598	-0.5052320116617088	2.014052880758579	0.03095090545902481	0.6749170001434057	-0.5635176024628777	2.009290450905218	2.009290450905232	-0.007092232080631051	0.03712125637175554	0.5174787202069515	0.1214734114948269	-0.207493072868097	0.02154886505018862	-0.02649166311333425	-0.267328878672934	0.09329521728095173	0.03820852373068648	0.2036769949785134	-9.084647189660476	-17.41518460592741	5.128983287760309	-0.6700090564029089	-621.8245487505426	-58.25499225396209	-16.55991664505941	0.580725195237238	0.5597185631934272	-0.1702364796923677	-1.907671249002336	0.599563311598915	-0.5590830610530722	1.744540698982836	-1.971228577647796	-1.971228577647796	0.05821964142437489	-0.1059453509085117	-0.7266198137670122	0.6207656434548493	-2.985828020632725e-07	-1.217404956249018e-07	2.069048190650082e-06	2.471301451463096e-07	-3.633348486595046e-07	-1.059652228668475e-08	-3.043612872636503e-07
0.55	-0.3492617895670839	-0.03497748177942467	0.7456095364992273	1.248314444466928	-0.3041406378888505	0.03822333170769719	-0.3495097117253481	0.9007358433329732	0.9007358433329712	-0.1736206803918023	0.1695177322207552	0.1882492412952937	-0.01428893370127507	-0.3967664761422148	-0.1340243454752081	-0.5066028610655574	1.994124636048152	0.03665989288732681	0.6694783684730315	-0.5459831475893899	1.988723944844643	1.988723944844651	-0.007096856220148428	0.03597037983113945	0.509930988587689	0.1273503335149897	-0.2133317966162765	0.02164623036949314	-0.0264561092138497	-0.2702644295483247	0.09183493249661327	0.03807461570128377	0.2085302865043991	-9.792114064377078	-17.12611430282409	4.960629375446688	-0.3783143882938722	-626.1834546483722	-57.96746149496315	-15.31166290735767	0.613532234583081	0.5629256604615251	-0.1038764431501378	-2.073577638395585	0.5507182342501349	-0.5487309309017339	1.765043550743682	-2.13793761927757	-2.137937619278513	-0.02922596511360259	-0.1199471541961177	-0.7795262568645744	0.5652545675052286	-2.7099731739502e-07	-4.099263366740252e-08	1.955766327662079e-06	2.420390935058082e-07	-3.361834332483413e-07	5.838289122861081e-08	-2.809546630778781e-07
0.5600000000000001	-0.3531984932177432	-0.03628955742338023	0.7405394234324919	1.268149685832624	-0.3037464784300913	0.0448888342815665	-0.3548806799820059	0.9205138228670608	0.9205138228670589	-0.1736915744882577	0.1698716202388801	0.1933090339026932	-0.01298703670515414	-0.3905325137715102	-0.1283874430998278	-0.5073084013661673	1.972669329084419	0.04213495134780062	0.6635406283677718	-0.5281628659474245	1.966614398823459	1.96661439882346	-0.007078381298608579	0.03480796934821138	0.5019562001340783	0.1329912189834816	-0.2191705203644559	0.02174359568879766	-0.02642055531436515	-0.2731999804237154	0.09037464771227484	0.03794070767188107	0.2133835780302848	-10.5048268242596	-16.83669230010384	4.79286844551633	-0.09879450297191335	-630.6403828257568	-57.74600063442119	-14.07571047110825	0.6306444326836433	0.5641192259915137	-0.03717465904462742	-2.213083699663519	0.5527775180332744	-0.6589047480301709	1.801706052678358	-2.279836569769649	-2.279836569769702	0.06283945363582051	-0.1082521393702656	-0.8120311806366218	0.573558333120659	-2.417625584060584e-07	4.369673514723234e-08	1.833040313610739e-06	2.349702829788497e-07	-3.067800300499092e-07	1.24879968068643e-07	-2.55847533520316e-07
